<?xml version="1.0" encoding="utf-8"?>
<!-- Generator: Adobe Illustrator 23.0.6, SVG Export Plug-In . SVG Version: 6.00 Build 0)  -->
<svg version="1.1" id="Layer_1" xmlns="http://www.w3.org/2000/svg" xmlns:xlink="http://www.w3.org/1999/xlink" x="0px" y="0px"
	 viewBox="0 0 360 360" style="enable-background:new 0 0 360 360;" xml:space="preserve">
<style type="text/css">
	.st0{fill:#0083A9;}
</style>
<g>
	<path class="st0" d="M308.3,253.8H51.7c-21.5,0-27.2-17.8-27.2-27.2V42.9c0-21.5,17.8-27.2,27.2-27.2h256.7
		c21.5,0,27.2,17.8,27.2,27.2v183.6C335.6,248.1,317.8,253.8,308.3,253.8z M51.7,25.6c-1.8,0-17.3,0.7-17.3,17.3v183.6
		c0,1.8,0.7,17.3,17.3,17.3h256.7c1.8,0,17.3-0.7,17.3-17.3V42.9c0-1.8-0.7-17.3-17.3-17.3H51.7z"/>
	<path class="st0" d="M283.1,171.8v-4.7c0-57-46.4-103.4-103.4-103.4c-57,0-103.4,46.4-103.4,103.4v4.7h23.1v-9.3H85.7
		c0.7-13.7,4.4-26.6,10.3-38.1l11.7,6.8l4.7-8.1l-11.7-6.8c7.2-11.2,16.8-20.6,27.9-27.8l6.8,11.7l8.1-4.7l-6.8-11.8
		c11.5-6,24.4-9.6,38.1-10.3v13.7h9.3V73.4c13.7,0.7,26.7,4.1,38.3,10l-7,12.1l8.1,4.7l7-12.1c11.2,7.2,20.8,16.8,28,28l-12.1,7
		l4.7,8.1l12.1-7c6,11.6,9.7,24.5,10.4,38.3h-14.1v9.3H283.1z"/>
	<path class="st0" d="M179.4,157.8c-5.1,0-9.3,4.2-9.3,9.3c0,5.1,4.2,9.3,9.3,9.3c5.1,0,9.3-4.2,9.3-9.3
		C188.8,162,184.6,157.8,179.4,157.8 M179.4,185.8c-10.3,0-18.7-8.4-18.7-18.7c0-10.3,8.4-18.7,18.7-18.7c10.3,0,18.7,8.4,18.7,18.7
		C198.1,177.5,189.7,185.8,179.4,185.8"/>
	<rect x="174.8" y="96.4" class="st0" width="9.3" height="56.7"/>
	<path class="st0" d="M118.8,171.8h-9.3v-4.7c0-31,19.9-57.9,49.5-66.9l4.5-1.4l2.7,8.9l-4.5,1.4c-25.6,7.9-42.9,31.2-42.9,58V171.8
		z"/>
	<path class="st0" d="M201.1,344.3h-42.8c-2.7,0-5-2.2-5-5v-90.6c0-2.7,2.2-5,5-5h42.8c2.7,0,5,2.2,5,5v90.6
		C206,342.1,203.8,344.3,201.1,344.3z M163.2,334.4h32.9v-80.7h-32.9V334.4z"/>
	<path class="st0" d="M301.3,344.3H58.1c-2.7,0-5-2.2-5-5c0-2.7,2.2-5,5-5h243.2c2.7,0,5,2.2,5,5C306.2,342.1,304,344.3,301.3,344.3
		z"/>
</g>
</svg>
