<?xml version="1.0" encoding="utf-8"?>
<!-- Generator: Adobe Illustrator 23.0.6, SVG Export Plug-In . SVG Version: 6.00 Build 0)  -->
<svg version="1.1" id="Layer_1" xmlns="http://www.w3.org/2000/svg" xmlns:xlink="http://www.w3.org/1999/xlink" x="0px" y="0px"
	 viewBox="0 0 360 360" style="enable-background:new 0 0 360 360;" xml:space="preserve">
<style type="text/css">
	.st0{fill:#0083A9;}
</style>
<g>
	<path class="st0" d="M180.1,170.1c-2.7,0-5,0.9-6.9,2.9c-1.9,1.9-2.8,4.2-2.8,6.9c0,2.8,0.9,5.1,2.9,7c1.9,2,4.2,2.9,6.9,2.9
		c2.6,0,4.9-1,6.8-3c2-2,2.9-4.3,2.9-7c0-2.7-1-4.9-2.9-6.8c0,0,0,0,0,0C185,171,182.8,170.1,180.1,170.1
		C180.1,170.1,180.1,170.1,180.1,170.1 M180.2,197c-4.7,0-8.7-1.7-12-5c-3.3-3.3-5-7.4-4.9-12.1c0-4.7,1.6-8.7,4.9-12
		c3.3-3.3,7.5-4.9,12-5h0c4.6,0,8.6,1.7,11.9,5c3.3,3.3,5,7.3,5,11.9c0,4.7-1.7,8.8-5,12.1C188.8,195.2,184.8,196.9,180.2,197
		 M179.9,30.7c0.1,0-0.1,0-0.3,0c-0.1,0-0.3,0-0.4,0c-2.6,0.1-4.9,1.1-6.9,3c-2,2.1-3,4.5-3,7.4c0,0.5,0,1,0.1,1.4
		c0.3,2.3,1.3,4.3,3,6c2,2,4.2,3,6.8,3.1c0.3,0,0.5,0,0.7,0h0h0c2.9,0,5.3-1,7.4-3.1c1.8-1.8,2.8-3.8,3.1-6.1
		c0.1-0.5,0.1-0.9,0.1-1.3c0-3-1-5.4-3.1-7.5C185.3,31.7,182.8,30.7,179.9,30.7 M41.3,169.5c-3,0-5.4,1-7.5,3.1
		c-2.1,2.1-3.1,4.5-3.1,7.4c0,0.1,0,0.3,0,0.5c0.2,2.8,1.1,5.1,3.1,7c2.1,2,4.6,3.1,7.5,3.1c0.5,0,1,0,1.5-0.1
		c2.2-0.3,4.2-1.3,5.9-3c2-2,3-4.2,3.1-6.8c0-0.3,0-0.4,0-0.6v-0.1c0-2.9-1-5.4-3.1-7.5c-1.8-1.8-3.7-2.8-6-3
		C42.2,169.5,41.7,169.5,41.3,169.5L41.3,169.5z M318.7,169.5c-0.4,0-0.8,0-1.2,0.1c-2.4,0.3-4.4,1.3-6.1,3.1
		c-2.2,2.1-3.2,4.5-3.2,7.4c0,0.1,0,0.3,0,0.4c0.2,2.9,1.2,5.1,3.1,7.1c1.7,1.7,3.7,2.7,6.1,3c0.3,0,0.8,0,1.3,0h0
		c3,0,5.4-1,7.5-3.1c1.9-1.9,2.9-4.1,3-6.8c0-0.4,0.1-0.6,0.1-0.8c0-2.9-1-5.3-3.1-7.3C324.1,170.5,321.6,169.5,318.7,169.5
		 M206.6,235l7.7,0c5.7,0,10.5-2,14.6-6.1c4.1-4.1,6.1-8.8,6-14.6l0-34.3l0-26.7v0v-7.7c0-5.7-2-10.5-6-14.6
		c-4.1-4.1-8.9-6.1-14.6-6.1H180h-26.7l-7.6,0h-0.1c-5.7,0-10.5,2-14.6,6c-4.1,4.1-6.1,8.9-6.1,14.7l0,61v0l0,7.6
		c0,5.8,2,10.6,6.1,14.7c4.1,4.1,8.7,6,14.6,6l7.6,0h0l26.7,0L206.6,235C206.6,235,206.6,235,206.6,235 M179.8,308.2
		c-0.1,0-0.3,0-0.4,0c-2.8,0.1-5,1.2-6.9,3.1c-1.7,1.7-2.7,3.7-3,6.1c0,0.3,0,0.8,0,1.3c0,3,1,5.4,3.1,7.5c1.9,1.9,4.2,2.9,6.8,3
		c0.4,0,0.6,0,0.8,0.1c2.8,0,5.2-1,7.3-3.1c2.1-2.1,3.2-4.6,3.2-7.5c0-0.5,0-0.9-0.1-1.4c-0.3-2.4-1.3-4.4-3-6.1
		c-2.1-2.1-4.6-3.2-7.4-3.1C179.9,308.2,179.9,308.2,179.8,308.2L179.8,308.2z M180,336.5c-0.5,0-0.9,0-1.3-0.1
		c-4.2-0.2-8.1-1.9-11.3-5.1c-3.5-3.5-5.2-7.7-5.2-12.6c0-0.7,0-1.4,0.1-2.1c0.5-4.1,2.2-7.5,5.1-10.4c2.6-2.6,5.6-4.2,9-4.9l0-59.2
		l-23.1,0h0h-7.6h-0.1c-7.6,0-14.2-2.7-19.6-8.1c-5.4-5.4-8.2-12.1-8.2-19.7l0-7.6l0-23.1l-59.2,0c-0.7,3.3-2.3,6.4-4.9,9
		c-2.9,2.9-6.4,4.6-10.3,5.1c-0.8,0.1-1.5,0.1-2.2,0.1c-4.8,0-9-1.8-12.5-5.2c-3.2-3.3-4.9-7.1-5.1-11.5c0-0.2-0.1-0.6-0.1-1
		c0-4.9,1.7-9.1,5.2-12.5c3.5-3.5,7.7-5.3,12.6-5.2c0.7,0,1.5,0,2.2,0.1c3.9,0.4,7.4,2.1,10.3,5.1c2.6,2.5,4.2,5.6,4.9,8.9l59.2,0
		v-30.8c0-7.7,2.8-14.3,8.2-19.7c5.4-5.4,12-8.1,19.6-8.1h0.1l7.6,0h0l23.1,0l0-59.2c-3.3-0.6-6.3-2.3-9-4.9
		c-2.9-2.9-4.6-6.4-5.1-10.3c-0.1-0.8-0.1-1.5-0.1-2.2c0-4.8,1.7-9.1,5.1-12.5c3.3-3.2,7.1-4.9,11.4-5.1c0.3,0,0.7-0.1,1-0.1
		c5.1,0,9.3,1.8,12.7,5.2c3.5,3.5,5.2,7.7,5.2,12.6c0,0.7,0,1.5-0.1,2.2c-0.4,3.9-2.2,7.4-5.1,10.3c-2.5,2.6-5.5,4.2-8.9,4.9l0,59.2
		h30.8c7.7,0,14.3,2.8,19.7,8.2c5.4,5.4,8.1,12,8.1,19.6l0,30.8h59.2c0.7-3.4,2.3-6.4,4.9-8.9c2.8-2.9,6.3-4.6,10.3-5.1
		c0.6-0.1,1.4-0.1,2.2-0.2c4.9,0,9.1,1.8,12.6,5.3c3.4,3.4,5.2,7.6,5.2,12.4c0,0,0,0.1,0,0.1c0,0.4,0,0.8-0.1,1.2
		c-0.2,4.1-1.9,8-5.1,11.2c-3.5,3.5-7.7,5.2-12.6,5.2c-0.1,0-0.1,0-0.2,0c-0.6,0-1.3,0-1.9-0.1c-4.1-0.5-7.5-2.2-10.4-5.1
		c-2.6-2.6-4.2-5.6-4.9-9h-59.2v23.1v0l0,7.6c0,7.6-2.7,14.2-8.1,19.6c-5.4,5.4-12.1,8.2-19.7,8.2l-7.7,0l-23.1,0l0,59.2
		c3.4,0.7,6.4,2.3,8.9,4.9c2.9,2.9,4.6,6.4,5.1,10.3c0.1,0.7,0.1,1.4,0.1,2.2c0,4.8-1.8,9.1-5.3,12.5
		C189,334.7,184.8,336.5,180,336.5"/>
	<polygon class="st0" points="118,246.5 113,241.5 149.1,205.3 154.2,210.3 	"/>
	<polygon class="st0" points="160.9,198.6 142.6,199.3 160.2,216.9 	"/>
	<polygon class="st0" points="149.1,154.9 113,118.7 118,113.6 154.2,149.8 	"/>
	<polygon class="st0" points="160.9,161.6 160.2,143.3 142.6,160.9 	"/>
	<polygon class="st0" points="242.3,248 204.8,210.5 209.9,205.5 247.3,243 	"/>
	<polygon class="st0" points="198.1,198.8 198.8,217 216.4,199.5 	"/>
	
		<rect x="201.2" y="130.3" transform="matrix(0.7071 -0.7071 0.7071 0.7071 -28.4912 199.0008)" class="st0" width="49.6" height="7.2"/>
	<polygon class="st0" points="199.2,160.6 217.5,160 199.9,142.4 	"/>
	<path class="st0" d="M104.1,115.2c-0.2,0-0.4,0-0.8-0.1c-2.6-0.1-4.9-1.1-6.8-3c-2.1-2.1-3.1-4.6-3.1-7.5c0-0.5,0-1,0-1.3
		c0.3-2.3,1.3-4.3,3-6.1c2-2,4.2-3,7-3.1c0.2,0,0.3,0,0.5,0c0,0,0,0,0.1,0c2.9,0,5.3,1,7.4,3.1c0,0,0,0,0,0c1.8,1.7,2.8,3.7,3,6.1
		c0.1,0.4,0.1,0.9,0.1,1.3c0,2.9-1,5.3-3.2,7.5C109.3,114.2,106.9,115.2,104.1,115.2 M121.7,104.6c0-0.8-0.1-1.6-0.1-2.2
		c-0.4-3.9-2.1-7.3-5-10.2c-0.1-0.1-0.1-0.1-0.2-0.2c-3.4-3.4-7.6-5.2-12.4-5.1c-0.4,0-0.8,0-1.1,0c-4.4,0.2-8.3,2-11.5,5.2
		c-2.9,2.9-4.6,6.4-5.1,10.4c-0.1,0.7-0.1,1.4-0.1,2.1c0,4.8,1.7,9,5.2,12.6c3.2,3.2,7.1,4.9,11.2,5.1c0.4,0.1,0.8,0.1,1.3,0.1
		c4.8,0,9-1.8,12.4-5.2C119.9,113.7,121.7,109.5,121.7,104.6"/>
	<path class="st0" d="M104.2,265.3c-0.2,0-0.4,0-0.8-0.1c-2.6-0.1-4.9-1.1-6.8-3c-2.1-2.1-3.1-4.6-3.1-7.5c0-0.5,0-1,0-1.3
		c0.3-2.3,1.3-4.3,3-6.1c2-2,4.2-3,7-3.1c0.1,0,0.3,0,0.4,0c0,0,0.1,0,0.1,0c2.9,0,5.3,1,7.4,3.1c0,0,0,0,0,0.1
		c1.8,1.9,2.8,3.7,3,6.1c0.1,0.4,0.1,0.9,0.1,1.3c0,2.9-1,5.3-3.2,7.5C109.4,264.3,107,265.3,104.2,265.3 M121.8,254.8
		c0-0.8-0.1-1.6-0.1-2.2c-0.4-4-2-7.4-5.1-10.3c-3.4-3.5-7.6-5.2-12.5-5.2c-0.4,0-0.8,0-1.1,0c-4.4,0.2-8.3,2-11.5,5.2
		c-2.9,2.9-4.6,6.4-5.1,10.4c-0.1,0.7-0.1,1.4-0.1,2.1c0,4.8,1.7,9,5.2,12.6c3.2,3.2,7.1,4.9,11.2,5.1c0.4,0.1,0.8,0.1,1.4,0.1
		c4.8,0,9-1.8,12.4-5.2C120,263.8,121.8,259.6,121.8,254.8"/>
	<path class="st0" d="M261.8,262.5c-2.1,2.1-4.5,3.1-7.3,3.1c-0.2,0-0.4,0-0.8-0.1c-2.6-0.1-4.9-1.1-6.8-3c-2.1-2.1-3.1-4.6-3.1-7.6
		c0-0.5,0-1,0-1.3c0.3-2.3,1.3-4.3,3-6.1c2-2,4.2-3,6.9-3.1c0.1,0,0.3,0,0.4,0c0,0,0.1,0,0.1,0c0,0,0.1,0,0.1,0c2.9,0,5.3,1,7.4,3.1
		c1.8,1.7,2.8,3.7,3,6.1c0.1,0.4,0.1,0.9,0.1,1.4C264.9,257.9,263.9,260.4,261.8,262.5 M272,252.8c-0.4-4-2.2-7.4-5.1-10.3
		c-3.4-3.5-7.6-5.1-12.5-5.2c-0.4,0-0.8,0-1.1,0c-4.4,0.2-8.3,2-11.5,5.2c-2.9,2.9-4.6,6.4-5.1,10.4c-0.1,0.7-0.1,1.4-0.1,2.1
		c0,4.8,1.7,9,5.2,12.6c3.2,3.2,7.1,4.9,11.2,5.1c0.4,0.1,0.8,0.1,1.3,0.1c4.8,0,9-1.8,12.4-5.2c3.5-3.5,5.3-7.7,5.3-12.5
		C272.1,254.2,272.1,253.5,272,252.8"/>
	<path class="st0" d="M246.9,262.5c-0.7-0.8-1.3-1.6-1.8-2.4c-38.1,31.1-93.3,30.9-131.2-0.6c-0.5,1-1.1,1.9-2,2.8
		c-1,1-2.1,1.8-3.3,2.3c40.9,34.5,101,34.6,142,0.4C249.3,264.4,248.1,263.6,246.9,262.5"/>
	<path class="st0" d="M96.6,247.3c1-1,2-1.7,3.2-2.2c-30.9-38-30.7-92.9,0.4-130.7c-1.3-0.5-2.6-1.3-3.7-2.4
		c-0.7-0.8-1.3-1.6-1.8-2.4c-33.6,40.6-33.6,99.8-0.2,140.5C95,249.2,95.7,248.2,96.6,247.3"/>
	<path class="st0" d="M264.5,108.8c-0.5,1.1-1.3,2.2-2.2,3.2c-0.9,0.9-1.8,1.5-2.9,2c31.7,38,31.7,93.7,0.2,131.8
		c0.8,0.5,1.6,1,2.3,1.8c1.2,1.2,2,2.4,2.5,3.8C299,210.4,299.1,149.9,264.5,108.8"/>
	<path class="st0" d="M247.3,97.1c1-1,2-1.7,3.1-2.2C209.5,61,149.7,61.1,109,95.3c0.8,0.5,1.7,1,2.4,1.8c0,0,0,0,0,0
		c1.1,1.1,1.9,2.3,2.4,3.6c37.9-31.6,93.3-31.9,131.4-0.7C245.7,99,246.4,98,247.3,97.1"/>
	<path class="st0" d="M262.2,112c-2.1,2.1-4.5,3.1-7.3,3.1c-0.2,0-0.4,0-0.8-0.1c-2.6-0.1-4.9-1.1-6.8-3c-2.1-2.1-3.1-4.6-3.1-7.6
		c0-0.5,0-0.9,0-1.3c0.3-2.3,1.3-4.3,3-6.1c2-2,4.2-3,7-3.1c0.1,0,0.3,0,0.4,0h0.1c0,0,0,0,0.1,0c3,0,5.3,1,7.4,3.1
		c1.8,1.7,2.8,3.7,3,6.1c0.1,0.4,0.1,0.9,0.1,1.3C265.4,107.5,264.3,109.9,262.2,112 M272.4,102.3c-0.4-4-2.2-7.4-5.1-10.3
		c-3.4-3.5-7.6-5.2-12.5-5.2h-0.1c-0.4,0-0.8,0-1.1,0c-4.4,0.2-8.3,2-11.5,5.2c-2.9,2.9-4.6,6.4-5.1,10.4c-0.1,0.7-0.1,1.4-0.1,2.1
		c0,4.8,1.7,9,5.2,12.6c3.2,3.2,7.1,4.9,11.2,5.1c0.4,0,0.8,0.1,1.3,0.1c4.8,0,9-1.8,12.4-5.2c3.5-3.5,5.3-7.7,5.3-12.5
		C272.5,103.8,272.5,103,272.4,102.3"/>
	<path class="st0" d="M180,349.6c-93.5,0-169.6-76.1-169.6-169.6C10.4,86.5,86.5,10.4,180,10.4S349.6,86.5,349.6,180
		C349.6,273.5,273.5,349.6,180,349.6z M180,19C91.2,19,19,91.2,19,180c0,88.8,72.2,161,161,161s161-72.2,161-161
		C341,91.2,268.8,19,180,19z"/>
</g>
</svg>
