<?xml version="1.0" encoding="utf-8"?>
<!-- Generator: Adobe Illustrator 23.0.6, SVG Export Plug-In . SVG Version: 6.00 Build 0)  -->
<svg version="1.1" id="Layer_1" xmlns="http://www.w3.org/2000/svg" xmlns:xlink="http://www.w3.org/1999/xlink" x="0px" y="0px"
	 viewBox="0 0 360 360" style="enable-background:new 0 0 360 360;" xml:space="preserve">
<style type="text/css">
	.st0{fill:#0083A9;}
</style>
<path class="st0" d="M322.8,342.5H93.2c-2.4,0-4.3-1.9-4.3-4.3v-18.8c0-0.9,0.3-1.8,0.8-2.5l32.9-45.8c0.8-1.1,2.1-1.8,3.5-1.8h23.8
	c-2-6-2.9-12.4-3-19.1l-80.2-73c-9-0.5-16.8-4-23.2-10.5c-1.1-1.1-2.2-2.3-3.2-3.5c-4.9-6.3-7.3-13.6-7.3-21.8
	c0-8.3,2.6-15.6,7.5-21.9c0.9-1.2,1.9-2.3,3-3.4c1.5-1.5,3.1-2.9,4.8-4.1c0.8-0.6,1.5-1,2.3-1.5l90.2-59.4
	c0.1-8.8,3.3-16.4,9.5-22.7c6.4-6.3,14.2-9.5,23.2-9.5c0,0,0.1,0,0.1,0h49.8c2.4,0,4.3,1.9,4.3,4.3v24.2h24.8l16.1-27.8
	c0.8-1.3,2.2-2.1,3.7-2.1h34.5c1.5,0,2.9,0.8,3.7,2.1l8.6,14.9c1.2,2.1,0.5,4.7-1.6,5.9c-2.1,1.2-4.7,0.5-5.9-1.6l-7.4-12.7h-29.5
	l-14.9,25.6l14.9,25.6h29.5l7.4-12.9c1.2-2.1,3.8-2.8,5.9-1.6c2.1,1.2,2.8,3.8,1.6,5.9l-8.6,15c-0.8,1.3-2.2,2.2-3.7,2.2h-34.5
	c-1.5,0-2.9-0.8-3.7-2.1L252.4,56h-24.8v24.3c0,2.4-1.9,4.3-4.3,4.3h-39.2l-63.3,57.6l73.2,48.3c0.9-0.2,1.9-0.4,2.9-0.6
	c7.1-1.2,15-1.2,22,0c12.1,2.1,23,7.8,32.2,17c11.9,11.9,17.9,26.4,18,43.1c0,6.8-1,13.2-3,19.2H290c1.4,0,2.7,0.7,3.5,1.8
	l32.8,45.8c0.5,0.7,0.8,1.6,0.8,2.5v18.8C327.1,340.6,325.2,342.5,322.8,342.5z M97.5,333.9h221v-13.2l-30.7-42.9h-27.9
	c-1.5,0-2.8-0.7-3.6-2c-0.8-1.2-0.9-2.8-0.3-4.1c3-6.6,4.5-13.9,4.5-21.7c0-14.6-5.1-26.7-15.4-37.1c-7.9-7.9-17.2-12.9-27.5-14.6
	c-6.1-1.1-13-1.1-19.1,0c-1.3,0.2-2.7,0.5-4,0.9c-1.2,0.3-2.5,0.1-3.5-0.6l-79.4-52.4c-1.1-0.7-1.8-1.9-1.9-3.3
	c-0.1-1.3,0.4-2.6,1.4-3.5l68.6-62.4c0.8-0.7,1.8-1.1,2.9-1.1h36.6V27.5h-45.5c-6.7-0.1-12.4,2.3-17.2,7c-4.7,4.8-7,10.4-7,17.2
	c0,0.1,0,0.1,0,0.2c0,0.5,0,0.9,0,1.4c0.1,1.5-0.7,2.9-1.9,3.8l-92.3,60.8c-0.8,0.4-1.3,0.8-1.8,1.2c-1.2,0.9-2.5,2-3.7,3.2
	c-0.9,0.9-1.7,1.8-2.4,2.7c-3.8,4.8-5.7,10.2-5.7,16.6c0,6.3,1.8,11.7,5.5,16.4c0.7,0.9,1.6,1.8,2.5,2.7c5.3,5.4,11.5,8,19,8.1
	c1.1,0,2.1,0.4,2.8,1.1l82.8,75.4c0.9,0.9,1.5,2.1,1.4,3.4c0,0.5,0,1,0,1.6c0,7.8,1.5,15.1,4.5,21.7c0.6,1.3,0.5,2.9-0.3,4.1
	c-0.8,1.2-2.2,2-3.6,2h-27.9l-30.8,42.9V333.9z M277.3,310.2H138.9c-2.4,0-4.3-1.9-4.3-4.3c0-2.4,1.9-4.3,4.3-4.3h138.4
	c2.4,0,4.3,1.9,4.3,4.3C281.6,308.3,279.6,310.2,277.3,310.2z M208,277.6c-7.6,0-14.1-2.7-19.5-8.1c-5.3-5.4-8.1-11.9-8.1-19.5
	c0-7.6,2.7-14.2,8.1-19.5c5.3-5.3,11.9-7.8,19.5-8c0,0,0.1,0,0.1,0c7.5,0,14.1,2.7,19.4,8c5.4,5.4,8.1,11.9,8.1,19.5
	c0,7.6-2.7,14.2-8.1,19.5C222.2,274.9,215.6,277.6,208,277.6z M207.9,231.1c-5.3,0-9.6,1.8-13.3,5.5c-3.7,3.7-5.6,8.1-5.6,13.4
	c0,5.3,1.8,9.7,5.6,13.4c3.7,3.7,8.1,5.6,13.4,5.6c5.3,0,9.7-1.8,13.4-5.6c3.7-3.7,5.6-8.1,5.6-13.4c0-5.3-1.8-9.7-5.6-13.4
	c-3.7-3.7-8.1-5.5-13.4-5.5C208,231.1,208,231.1,207.9,231.1z M68.8,158.6c-4.7,0-8.8-1.7-12.2-5c-3.4-3.3-5.1-7.4-5.1-12.2
	c0-4.7,1.7-8.8,5.1-12.2c3.4-3.3,7.7-4.8,12.2-4.9c0,0,0.1,0,0.1,0c4.7,0,8.7,1.7,12.1,4.9c3.4,3.4,5.1,7.5,5.1,12.2
	c0,4.8-1.7,8.9-5.1,12.2C77.7,156.9,73.6,158.6,68.8,158.6z M68.7,132.9c-2.4,0-4.4,0.8-6.1,2.5c-1.7,1.7-2.5,3.6-2.5,6.1
	c0,2.4,0.8,4.4,2.5,6.1c3.5,3.4,8.8,3.4,12.3,0c1.7-1.7,2.5-3.6,2.5-6.1c0-2.4-0.8-4.4-2.5-6.1c-1.7-1.7-3.6-2.5-6.1-2.5
	C68.9,132.9,68.9,132.9,68.7,132.9C68.8,132.9,68.8,132.9,68.7,132.9z"/>
</svg>
