<?xml version="1.0" encoding="utf-8"?>
<!-- Generator: Adobe Illustrator 23.0.6, SVG Export Plug-In . SVG Version: 6.00 Build 0)  -->
<svg version="1.1" id="Layer_1" xmlns="http://www.w3.org/2000/svg" xmlns:xlink="http://www.w3.org/1999/xlink" x="0px" y="0px"
	 viewBox="0 0 360 360" style="enable-background:new 0 0 360 360;" xml:space="preserve">
<style type="text/css">
	.st0{fill:#0083A9;}
</style>
<path class="st0" d="M237.9,332.4H122.1c-2.4,0-4.3-1.9-4.3-4.3v-16.7c0-18.3,14.9-33.2,33.2-33.2h57.9c18.3,0,33.2,14.9,33.2,33.2
	v16.7C242.2,330.5,240.3,332.4,237.9,332.4z M126.4,323.8h107.2v-12.4c0-13.6-11.1-24.6-24.6-24.6h-57.9
	c-13.6,0-24.6,11.1-24.6,24.6V323.8z M259.6,295.4c-1.4,0-3-0.9-3.8-2.1c-0.6-0.9-0.9-2.3-0.7-3.4c0.2-1.1,1-2.3,1.9-3
	c28.6-19.4,48.6-48.6,56.4-82.1c0.3-1.2,1.2-2.4,2.3-3c1-0.6,2.4-0.7,3.6-0.4c0.9,0.2,2,1,2.6,2c0.6,1,0.8,2.4,0.5,3.5
	c-8.3,35.7-29.7,66.8-60.1,87.6C261.4,295.1,260.4,295.4,259.6,295.4z M100.4,295.4c-0.9,0-2-0.4-2.7-0.9
	c-30.3-20.7-51.7-51.8-60-87.6c-0.5-2.1,0.8-4.4,2.7-5.3l0,0c0.1,0,0.2-0.1,0.3-0.1c0.1,0,0.2-0.1,0.3-0.1v0c1-0.2,2.2-0.1,3.1,0.3
	c1.2,0.6,2.1,1.7,2.5,3c7.8,33.7,27.8,62.8,56.4,82.3c0.9,0.6,1.7,1.8,1.9,3c0.2,1.1-0.1,2.5-0.8,3.5
	C103.4,294.6,102,295.4,100.4,295.4z M180,274.5c-18.3,0-33.2-14.9-33.2-33.2c0-18.3,14.9-33.2,33.2-33.2
	c18.3,0,33.2,14.9,33.2,33.2C213.2,259.6,198.3,274.5,180,274.5z M180,216.6c-13.6,0-24.6,11.1-24.6,24.7
	c0,13.6,11.1,24.6,24.6,24.6c13.6,0,24.7-11.1,24.7-24.6C204.7,227.7,193.6,216.6,180,216.6z M347.2,184.5H231.5
	c-2.4,0-4.3-1.9-4.3-4.3v-16.7c0-18.3,14.9-33.2,33.2-33.2h57.9c18.3,0,33.2,14.9,33.2,33.2v16.7
	C351.5,182.5,349.6,184.5,347.2,184.5z M235.8,175.9h107.2v-12.4c0-13.6-11.1-24.6-24.6-24.6h-57.9c-13.6,0-24.6,11.1-24.6,24.6
	V175.9z M128.5,184.5H12.8c-2.4,0-4.3-1.9-4.3-4.3v-16.7c0-18.3,14.9-33.2,33.2-33.2h57.9c18.3,0,33.2,14.9,33.2,33.2v16.7
	C132.8,182.5,130.9,184.5,128.5,184.5z M17.1,175.9h107.2v-12.4c0-13.6-11.1-24.6-24.6-24.6H41.7c-13.6,0-24.7,11.1-24.7,24.6V175.9
	z M289.4,126.6c-18.3,0-33.2-14.9-33.2-33.2c0-18.3,14.9-33.2,33.2-33.2c18.3,0,33.2,14.9,33.2,33.2
	C322.6,111.7,307.7,126.6,289.4,126.6z M289.4,68.7c-13.6,0-24.7,11.1-24.7,24.6c0,13.6,11.1,24.7,24.7,24.7
	c13.6,0,24.6-11.1,24.6-24.7C314,79.7,302.9,68.7,289.4,68.7z M70.7,126.6c-18.3,0-33.2-14.9-33.2-33.2c0-18.3,14.9-33.2,33.2-33.2
	c18.3,0,33.2,14.9,33.2,33.2C103.9,111.7,89,126.6,70.7,126.6z M70.7,68.7C57.1,68.7,46,79.7,46,93.3c0,13.6,11.1,24.7,24.6,24.7
	c13.6,0,24.7-11.1,24.7-24.7C95.3,79.7,84.2,68.7,70.7,68.7z M102.5,60c-1.4,0-3-0.8-3.8-2c-0.7-1-0.9-2.4-0.6-3.5
	c0.2-1.1,1-2.4,1.9-3c23.8-15.6,51.5-23.9,80-23.9s56.2,8.3,80.1,23.9c0.9,0.6,1.7,1.8,2,2.9c0.2,1.1,0,2.5-0.7,3.5
	c-0.6,1-1.6,1.7-2.8,2c-1.1,0.2-2.5,0-3.5-0.6c-22.4-14.7-48.3-22.4-75.1-22.4s-52.7,7.7-75,22.4C104.3,59.7,103.3,60,102.5,60z"/>
</svg>
